<?xml version="1.0" encoding="UTF-8" standalone="no"?>
<!-- Created with Inkscape (http://www.inkscape.org/) -->

<svg
   xmlns:dc="http://purl.org/dc/elements/1.1/"
   xmlns:cc="http://creativecommons.org/ns#"
   xmlns:rdf="http://www.w3.org/1999/02/22-rdf-syntax-ns#"
   xmlns:svg="http://www.w3.org/2000/svg"
   xmlns="http://www.w3.org/2000/svg"
   xmlns:sodipodi="http://sodipodi.sourceforge.net/DTD/sodipodi-0.dtd"
   xmlns:inkscape="http://www.inkscape.org/namespaces/inkscape"
   width="201.00002mm"
   height="11mm"
   viewBox="0 0 201.00001 11"
   version="1.1"
   id="svg8"
   inkscape:version="0.92.4 (33fec40, 2019-01-16)"
   sodipodi:docname="cinese_esempio.svg">
  <defs
     id="defs2" />
  <sodipodi:namedview
     id="base"
     pagecolor="#ffffff"
     bordercolor="#666666"
     borderopacity="1.0"
     inkscape:pageopacity="0.0"
     inkscape:pageshadow="2"
     inkscape:zoom="1.4"
     inkscape:cx="352.81609"
     inkscape:cy="180.62124"
     inkscape:document-units="mm"
     inkscape:current-layer="layer1"
     showgrid="false"
     inkscape:window-width="1855"
     inkscape:window-height="1016"
     inkscape:window-x="65"
     inkscape:window-y="28"
     inkscape:window-maximized="1" />
  <metadata
     id="metadata5">
    <rdf:RDF>
      <cc:Work
         rdf:about="">
        <dc:format>image/svg+xml</dc:format>
        <dc:type
           rdf:resource="http://purl.org/dc/dcmitype/StillImage" />
        <dc:title></dc:title>
      </cc:Work>
    </rdf:RDF>
  </metadata>
  <g
     inkscape:label="Livello 1"
     inkscape:groupmode="layer"
     id="layer1"
     transform="translate(0,-286)">
    <path
       style="font-style:normal;font-variant:normal;font-weight:normal;font-stretch:normal;font-size:10.58333302px;line-height:1.25;font-family:monospace;-inkscape-font-specification:monospace;letter-spacing:0px;word-spacing:0px;fill:#000000;fill-opacity:1;stroke:none;stroke-width:0.26458332"
       d="m 27.495332,286.96573 c -0.338667,1.44991 -0.909939,2.91029 -1.619023,3.84162 0.169334,0.10583 0.507855,0.31742 0.645438,0.44442 0.370417,-0.49742 0.698439,-1.143 0.994773,-1.85208 h 2.688206 c -0.137583,4.21216 -0.296188,5.82093 -0.645438,6.19135 -0.105833,0.13758 -0.222417,0.15865 -0.434083,0.15865 -0.243417,0 -0.878396,-7e-5 -1.566312,-0.0636 0.148166,0.22225 0.243416,0.53973 0.264583,0.77256 0.592667,0.0318 1.195895,0.0532 1.566312,0.0109 0.359833,-0.0317 0.603292,-0.12741 0.836126,-0.42374 0.423333,-0.51859 0.560856,-2.14826 0.730189,-6.97426 v -0.40204 h -3.164149 c 0.179916,-0.49742 0.327752,-1.00535 0.454752,-1.52394 z m 52.916666,0 c -0.338667,1.44991 -0.909939,2.91029 -1.619023,3.84162 0.169334,0.10583 0.507855,0.31742 0.645438,0.44442 0.370417,-0.49742 0.698439,-1.143 0.994773,-1.85208 h 2.688206 c -0.137583,4.21216 -0.296188,5.82093 -0.645438,6.19135 -0.105833,0.13758 -0.222417,0.15865 -0.434083,0.15865 -0.243417,0 -0.878396,-7e-5 -1.566312,-0.0636 0.148166,0.22225 0.243416,0.53973 0.264583,0.77256 0.592667,0.0318 1.195895,0.0532 1.566312,0.0109 0.359833,-0.0317 0.603292,-0.12741 0.836126,-0.42374 0.423333,-0.51859 0.560856,-2.14826 0.730189,-6.97426 v -0.40204 H 80.70862 c 0.179916,-0.49742 0.327752,-1.00535 0.454752,-1.52394 z m 21.166662,0 c -0.33866,1.44991 -0.90993,2.91029 -1.619021,3.84162 0.169341,0.10583 0.507861,0.31742 0.645441,0.44442 0.37042,-0.49742 0.69844,-1.143 0.99477,-1.85208 h 2.68821 c -0.13758,4.21216 -0.29619,5.82093 -0.64544,6.19135 -0.10583,0.13758 -0.22242,0.15865 -0.43408,0.15865 -0.24342,0 -0.8784,-7e-5 -1.56631,-0.0636 0.14816,0.22225 0.24341,0.53973 0.26458,0.77256 0.59267,0.0318 1.19589,0.0532 1.56631,0.0109 0.35983,-0.0317 0.60329,-0.12741 0.83613,-0.42374 0.42333,-0.51859 0.56085,-2.14826 0.73019,-6.97426 v -0.40204 h -3.16415 c 0.17991,-0.49742 0.32775,-1.00535 0.45475,-1.52394 z m 52.91667,0 c -0.33867,1.44991 -0.90994,2.91029 -1.61902,3.84162 0.16933,0.10583 0.50785,0.31742 0.64544,0.44442 0.37041,-0.49742 0.69843,-1.143 0.99477,-1.85208 h 2.6882 c -0.13758,4.21216 -0.29618,5.82093 -0.64543,6.19135 -0.10584,0.13758 -0.22242,0.15865 -0.43409,0.15865 -0.24341,0 -0.87839,-7e-5 -1.56631,-0.0636 0.14817,0.22225 0.24342,0.53973 0.26458,0.77256 0.59267,0.0318 1.1959,0.0532 1.56632,0.0109 0.35983,-0.0317 0.60329,-0.12741 0.83612,-0.42374 0.42334,-0.51859 0.56086,-2.14826 0.73019,-6.97426 v -0.40204 h -3.16415 c 0.17992,-0.49742 0.32775,-1.00535 0.45475,-1.52394 z m -87.523856,0.0103 c -0.560916,1.05833 -1.619395,2.36026 -3.058729,3.3445 0.1905,0.11641 0.455126,0.37044 0.571543,0.55035 0.243416,-0.17991 0.486751,-0.36012 0.709001,-0.5612 v 4.6886 c 0,1.25942 0.518687,1.55546 2.222603,1.55546 h 4.106209 c 1.55575,0 1.88404,-0.45471 2.063956,-1.99988 -0.243416,-0.0529 -0.571748,-0.15904 -0.783415,-0.29662 -0.127,1.28058 -0.285729,1.56631 -1.301729,1.56631 h -4.138247 c -1.164167,0 -1.385964,-0.15878 -1.385964,-0.81493 v -2.04226 h 5.97948 v 0.47594 h 0.79375 v -3.82045 h -2.984831 c 0.370417,-0.49741 0.730705,-1.07952 0.995288,-1.60868 l -0.529166,-0.33849 -0.14831,0.0527 h -2.614311 c 0.127,-0.20108 0.254104,-0.39137 0.37052,-0.58187 z m 74.083336,0 c -0.56092,1.05833 -1.6194,2.36026 -3.05873,3.3445 0.1905,0.11641 0.45512,0.37044 0.57154,0.55035 0.24342,-0.17991 0.48675,-0.36012 0.709,-0.5612 v 4.6886 c 0,1.25942 0.51869,1.55546 2.2226,1.55546 h 4.10621 c 1.55575,0 1.88404,-0.45471 2.06396,-1.99988 -0.24342,-0.0529 -0.57175,-0.15904 -0.78342,-0.29662 -0.127,1.28058 -0.28572,1.56631 -1.30172,1.56631 H 141.446 c -1.16417,0 -1.38597,-0.15878 -1.38597,-0.81493 v -2.04226 h 5.97948 v 0.47594 h 0.79375 v -3.82045 h -2.98483 c 0.37042,-0.49741 0.73071,-1.07952 0.99529,-1.60868 l -0.52916,-0.33849 -0.14831,0.0527 h -2.61432 c 0.127,-0.20108 0.25411,-0.39137 0.37052,-0.58187 z m 31.75,0 c -0.56092,1.05833 -1.6194,2.36026 -3.05873,3.3445 0.1905,0.11641 0.45512,0.37044 0.57154,0.55035 0.24342,-0.17991 0.48675,-0.36012 0.709,-0.5612 v 4.6886 c 0,1.25942 0.51869,1.55546 2.2226,1.55546 h 4.10621 c 1.55575,0 1.88404,-0.45471 2.06396,-1.99988 -0.24342,-0.0529 -0.57175,-0.15904 -0.78342,-0.29662 -0.127,1.28058 -0.28572,1.56631 -1.30172,1.56631 H 173.196 c -1.16417,0 -1.38597,-0.15878 -1.38597,-0.81493 v -2.04226 h 5.97948 v 0.47594 h 0.79375 v -3.82045 h -2.98483 c 0.37042,-0.49741 0.73071,-1.07952 0.99529,-1.60868 l -0.52917,-0.33849 -0.1483,0.0527 h -2.61432 c 0.127,-0.20108 0.25411,-0.39137 0.37052,-0.58187 z m -149.077208,0.0103 c -0.07408,0.49741 -0.26448,1.20662 -0.42323,1.71462 h -1.185457 v 7.70495 h 0.719853 v -0.83612 h 2.942455 v -6.86883 h -1.756997 c 0.179917,-0.45508 0.370438,-1.03688 0.550355,-1.55546 z m 52.916666,0 c -0.07408,0.49741 -0.26448,1.20662 -0.42323,1.71462 h -1.185456 v 7.70495 h 0.719852 v -0.83612 h 2.942455 v -6.86883 h -1.756997 c 0.179917,-0.45508 0.370438,-1.03688 0.550355,-1.55546 z m 21.166671,0 c -0.0741,0.49741 -0.26448,1.20662 -0.42323,1.71462 h -1.18546 v 7.70495 h 0.719852 v -0.83612 h 2.942458 v -6.86883 h -1.757 c 0.17992,-0.45508 0.37044,-1.03688 0.55035,-1.55546 z m 52.916661,0 c -0.0741,0.49741 -0.26448,1.20662 -0.42323,1.71462 h -1.18546 v 7.70495 h 0.71986 v -0.83612 h 2.94245 v -6.86883 h -1.757 c 0.17992,-0.45508 0.37044,-1.03688 0.55036,-1.55546 z m -147.3729137,0.0108 c -0.5715,1.28059 -1.6716914,2.64567 -2.95227453,3.53467 0.1799167,0.127 0.4336891,0.381 0.5606891,0.52917 0.97366673,-0.70909 1.82016803,-1.65078 2.47633463,-2.67736 0.8466667,0.73025 1.8202508,1.67184 2.2965008,2.30684 l 0.4873088,-0.62425 c -0.4974167,-0.61384 -1.5346249,-1.5665 -2.4236249,-2.28617 0.1058334,-0.1905 0.2011048,-0.36992 0.2857707,-0.54984 z m 180.5729537,0 c -0.53975,0.9525 -1.62958,2.04248 -3.18533,2.80448 0.17991,0.10584 0.4231,0.38129 0.56069,0.56121 0.65616,-0.34925 1.22754,-0.74121 1.72495,-1.17512 0.42334,0.51857 0.93153,0.97397 1.51361,1.37614 -1.2065,0.61383 -2.61409,1.0371 -3.96875,1.25935 0.13758,0.16934 0.29617,0.49759 0.35967,0.69867 1.49225,-0.28575 3.02718,-0.77277 4.32893,-1.5136 1.21708,0.65616 2.67762,1.10068 4.27571,1.3441 0.0847,-0.21167 0.29627,-0.52908 0.4656,-0.709 -1.49225,-0.17991 -2.86839,-0.55062 -4.02197,-1.09037 0.889,-0.61384 1.62983,-1.37575 2.11666,-2.2965 l -0.51831,-0.3173 -0.13746,0.0315 h -3.22823 c 0.22225,-0.26459 0.41306,-0.53977 0.58239,-0.81494 z m 13.22917,0.0104 -0.66663,0.25425 c 0.42333,0.56091 0.88877,1.31254 1.08986,1.79937 h -3.04788 v 0.76171 h 0.83613 c 0.35983,1.74625 0.86791,3.19627 1.67225,4.33927 -0.75142,0.81492 -1.74644,1.39696 -3.10111,1.80971 0.16934,0.16933 0.413,0.49729 0.51883,0.66663 1.29117,-0.46567 2.29673,-1.06869 3.05873,-1.88361 0.70909,0.80433 1.60826,1.41812 2.75126,1.80971 0.127,-0.21167 0.33864,-0.49754 0.50798,-0.65629 -1.15359,-0.34925 -2.05303,-0.9524 -2.76211,-1.74615 0.81492,-1.09008 1.31236,-2.50835 1.60869,-4.33927 h 0.97358 v -0.76171 h -2.9316 l 0.62476,-0.26458 c -0.21166,-0.48684 -0.69883,-1.23871 -1.13274,-1.78904 z m -160.231564,0.0109 v 1.50275 h -1.492414 v 0.71985 h 1.492414 v 1.37563 h 0.762227 v -1.37563 h 1.852084 v 1.37563 h 0.761711 v -1.37563 h 1.428853 v -0.71985 h -1.428853 v -1.50275 h -0.761711 v 1.50275 h -1.852084 v -1.50275 z m 18.615919,0 c -0.497417,1.25941 -1.322917,2.60354 -1.5875,2.95279 -0.243417,0.34925 -0.444357,0.59252 -0.645441,0.64544 0.09525,0.20108 0.22252,0.5929 0.275437,0.76222 0.148167,-0.0847 0.423272,-0.1376 1.788522,-0.28577 -0.486833,0.64559 -0.931664,1.17479 -1.132747,1.36529 -0.34925,0.381 -0.603314,0.6349 -0.857314,0.68782 0.105834,0.20108 0.233104,0.60321 0.275437,0.75137 0.232833,-0.11641 0.613645,-0.20094 3.513479,-0.64544 -0.02117,-0.17991 -0.04235,-0.48699 -0.02119,-0.69866 l -2.338877,0.31729 c 0.889,-0.91016 1.75669,-2.05321 2.497523,-3.21737 l -0.69815,-0.43357 c -0.22225,0.381 -0.454999,0.7724 -0.708999,1.13223 l -1.439706,0.13746 c 0.677333,-0.89958 1.344353,-2.03171 1.862936,-3.14296 z m 55.467415,0 v 1.50275 h -1.49242 v 0.71985 h 1.49242 v 1.37563 h 0.76223 v -1.37563 h 1.85208 v 1.37563 h 0.76171 v -1.37563 h 1.42885 v -0.71985 h -1.42885 v -1.50275 h -0.76171 v 1.50275 h -1.85208 v -1.50275 z m 18.29862,0 c -0.39158,1.25941 -1.10066,2.61387 -1.32291,2.96312 -0.21167,0.35983 -0.39138,0.60362 -0.58188,0.64596 0.0952,0.21166 0.22225,0.60323 0.26458,0.77256 0.14817,-0.0741 0.39132,-0.13762 1.57665,-0.30696 -0.42333,0.67734 -0.82544,1.20634 -0.99477,1.418 -0.30692,0.381 -0.53998,0.64548 -0.76223,0.68782 0.0847,0.20108 0.21192,0.5611 0.25425,0.71985 0.1905,-0.11642 0.55037,-0.22217 2.95279,-0.709 -0.0106,-0.14817 -0.0108,-0.45521 0.0103,-0.65629 l -1.9048,0.33848 c 0.762,-0.94192 1.52402,-2.09558 2.13786,-3.25975 l -0.65624,-0.38086 c -0.1905,0.39159 -0.39142,0.78352 -0.62426,1.15394 l -1.21698,0.12661 c 0.61384,-0.89959 1.19545,-2.06375 1.62936,-3.175 z m 32.52257,0 v 0.75137 h -2.43396 v 0.67748 h 2.43396 v 0.6351 h 0.76222 v -0.6351 h 2.87838 v 0.64544 h 0.77256 v -0.64544 h 2.48719 v -0.67748 h -2.48719 v -0.75137 h -0.77256 v 0.75137 h -2.86804 v -0.75137 z m 31.0937,0 c -0.42333,1.27 -1.18516,2.64591 -1.418,2.99516 -0.22225,0.35984 -0.40223,0.60336 -0.59273,0.63511 0.0952,0.21166 0.2225,0.58204 0.25425,0.75137 0.14817,-0.0741 0.40178,-0.13789 1.71411,-0.31781 -0.47625,0.70908 -0.92081,1.29108 -1.1219,1.50275 -0.30691,0.37042 -0.56089,0.61423 -0.77256,0.66714 0.0952,0.1905 0.20131,0.52907 0.23306,0.68782 0.21167,-0.13759 0.57128,-0.23279 3.20653,-0.75138 -0.0106,-0.16933 -0.0212,-0.47639 0,-0.67748 l -2.09548,0.38086 c 0.77258,-0.89958 1.52431,-1.98958 2.16989,-3.09025 l -0.62477,-0.37052 c -0.16933,0.32808 -0.35987,0.65635 -0.57154,0.98443 l -1.36478,0.15865 c 0.635,-0.93133 1.24845,-2.10612 1.71411,-3.21737 z m -102.319331,0.0847 c 0.01058,1.03716 0.05255,2.05327 0.147796,3.01635 H 88.32831 v -1.84175 c 0.645583,-0.13758 1.25985,-0.30687 1.76785,-0.48679 l -0.561205,-0.64544 c -0.994833,0.37042 -2.698956,0.73015 -4.180623,0.9524 0.105834,0.1905 0.211913,0.46579 0.254246,0.65629 0.624417,-0.0847 1.291003,-0.19081 1.94717,-0.31781 v 1.6831 h -2.264463 v 0.75137 h 2.264463 v 1.85209 c -0.92075,0.1905 -1.777773,0.3701 -2.412773,0.47594 l 0.222208,0.79375 c 0.635,-0.13759 1.396815,-0.31746 2.190565,-0.48679 v 2.1487 c 0,0.1905 -0.06323,0.2434 -0.253733,0.2434 -0.179917,0.0106 -0.80423,0.0209 -1.481564,-0.0109 0.116417,0.22225 0.253781,0.58208 0.296106,0.79375 0.85725,0 1.428917,-0.0213 1.757,-0.14831 0.328084,-0.127 0.454753,-0.35965 0.454753,-0.86765 v -2.34921 c 0.645583,-0.14817 1.302102,-0.29652 1.947685,-0.45527 l -0.05323,-0.709 c -0.624417,0.13758 -1.270042,0.27479 -1.894459,0.41238 v -1.69292 h 2.487186 c 0.137584,1.143 0.338736,2.19064 0.592728,3.06906 -0.751409,0.6985 -1.619372,1.28071 -2.508372,1.71462 0.201084,0.16934 0.423601,0.43376 0.540017,0.62426 0.79375,-0.41275 1.545029,-0.94215 2.232938,-1.55598 0.486834,1.23825 1.121939,1.97921 1.958023,1.97921 0.79375,0 1.068818,-0.50788 1.216977,-2.25413 -0.222242,-0.0741 -0.497292,-0.2539 -0.666625,-0.42323 -0.0635,1.35466 -0.190707,1.89446 -0.476457,1.89446 -0.529167,0 -1.005499,-0.67779 -1.407665,-1.78904 0.740833,-0.75142 1.365498,-1.58709 1.841748,-2.48667 l -0.698666,-0.28577 c -0.359834,0.67733 -0.825561,1.32273 -1.386478,1.92598 -0.179916,-0.6985 -0.327731,-1.51319 -0.433564,-2.41277 h 3.026687 v -0.75138 h -3.111439 c -0.08467,-0.94192 -0.127124,-1.95802 -0.127124,-3.01635 z m -55.753184,0.12712 c -0.201084,0.381 -0.476499,0.76181 -0.783416,1.13223 -0.275166,-0.37042 -0.603207,-0.74087 -1.015957,-1.10071 l -0.550355,0.42323 c 0.455084,0.40217 0.804355,0.81484 1.079521,1.23817 -0.4445,0.46566 -0.93092,0.88892 -1.428337,1.23817 0.169333,0.14816 0.402146,0.37068 0.507979,0.54002 0.455083,-0.3175 0.878377,-0.68769 1.280544,-1.08986 0.1905,0.43392 0.295918,0.8885 0.370001,1.34359 -0.47625,0.97366 -1.343835,2.00039 -2.127001,2.52956 0.1905,0.13758 0.41275,0.40223 0.529166,0.59273 0.582084,-0.47625 1.206355,-1.19575 1.703771,-1.94717 0.01058,0.17992 0.01085,0.35958 0.01085,0.5395 0,1.34408 -0.09533,2.59319 -0.349332,2.92127 -0.08467,0.11642 -0.179731,0.169 -0.338481,0.19017 -0.22225,0.0212 -0.613876,0.0214 -1.100709,-0.0103 0.137583,0.22225 0.22221,0.50796 0.22221,0.75138 0.423333,0.0318 0.846542,0.0317 1.195792,-0.0424 0.254,-0.0423 0.444561,-0.15856 0.592728,-0.33848 0.41275,-0.57149 0.529167,-1.95793 0.529167,-3.46076 0,-1.27 -0.105998,-2.49761 -0.698664,-3.64061 0.370416,-0.43392 0.709001,-0.88902 0.973584,-1.34411 z m 74.083335,0 c -0.20109,0.381 -0.4765,0.76181 -0.78342,1.13223 -0.27516,-0.37042 -0.60321,-0.74087 -1.01596,-1.10071 l -0.55035,0.42323 c 0.45508,0.40217 0.80435,0.81484 1.07952,1.23817 -0.4445,0.46566 -0.93092,0.88892 -1.42834,1.23817 0.16934,0.14816 0.40215,0.37068 0.50798,0.54002 0.45509,-0.3175 0.87838,-0.68769 1.28055,-1.08986 0.1905,0.43392 0.29591,0.8885 0.37,1.34359 -0.47625,0.97366 -1.34384,2.00039 -2.127,2.52956 0.1905,0.13758 0.41275,0.40223 0.52916,0.59273 0.58209,-0.47625 1.20636,-1.19575 1.70377,-1.94717 0.0106,0.17992 0.0108,0.35958 0.0108,0.5395 0,1.34408 -0.0953,2.59319 -0.34933,2.92127 -0.0847,0.11642 -0.17973,0.169 -0.33848,0.19017 -0.22225,0.0212 -0.61388,0.0214 -1.10071,-0.0103 0.13758,0.22225 0.22221,0.50796 0.22221,0.75138 0.42333,0.0318 0.84654,0.0317 1.19579,-0.0424 0.254,-0.0423 0.44456,-0.15856 0.59273,-0.33848 0.41275,-0.57149 0.52917,-1.95793 0.52917,-3.46076 0,-1.27 -0.106,-2.49761 -0.69867,-3.64061 0.37042,-0.43392 0.709,-0.88902 0.97359,-1.34411 z m -16.234672,0.063 -0.603581,0.4129 c 0.624417,0.53975 1.333831,1.30196 1.661914,1.79937 l 0.634588,-0.45527 c -0.34925,-0.49741 -1.079088,-1.23841 -1.692921,-1.757 z m 43.127082,0.10594 -0.10594,0.032 h -4.05349 v 0.68781 h 3.93722 c -0.0106,0.27517 -0.0212,0.59253 -0.0424,0.91003 h -3.67265 v 0.62425 h 3.64061 c -0.0106,0.33866 -0.0315,0.68837 -0.0527,0.99529 h -4.13825 v 0.69814 h 2.43396 v 2.01073 c -1.02658,0.67734 -2.0954,1.36544 -2.80448,1.77819 l 0.44442,0.60306 c 0.67733,-0.46566 1.54515,-1.05787 2.36006,-1.65054 v 1.72496 c 0,0.11641 -0.0316,0.14806 -0.15865,0.15864 -0.11641,0 -0.51823,-2e-5 -0.96273,-0.0212 0.10583,0.21167 0.21165,0.49734 0.2434,0.709 0.60325,0 1.01569,-0.021 1.26969,-0.13746 0.26458,-0.11641 0.33899,-0.30683 0.33899,-0.709 v -1.93683 c 0.58209,0.85725 1.37547,1.57702 2.26447,1.95802 0.10583,-0.17992 0.31745,-0.44456 0.48679,-0.59273 -0.81492,-0.28575 -1.56634,-0.84687 -2.11667,-1.53479 0.60325,-0.41275 1.32294,-0.97358 1.87327,-1.50275 l -0.62425,-0.38086 c -0.40216,0.43392 -1.03692,0.99494 -1.59783,1.42886 -0.0952,-0.15875 -0.20111,-0.33892 -0.28578,-0.51883 v -1.38648 h 2.6138 v -0.69815 h -0.88883 c 0.0635,-1.016 0.12687,-2.28629 0.13745,-3.20704 z m -91.736517,0.0424 v 3.49281 h 7.027479 v -3.49281 z m 74.083337,0 v 3.49281 h 7.02747 v -3.49281 z m -108.7334174,0.0951 -0.116272,0.0424 H 6.5932482 v 9.08058 h 0.7301884 v -8.36075 h 1.683101 c -0.28575,0.81491 -0.698789,1.93666 -1.090373,2.82566 0.941917,0.96309 1.206645,1.72535 1.206645,2.3921 0,0.35984 -0.06325,0.68769 -0.274919,0.82528 -0.116416,0.0635 -0.264996,0.0953 -0.423746,0.10593 -0.211667,0.0106 -0.507773,0.0106 -0.825273,-0.0212 0.137583,0.22225 0.211625,0.53971 0.222209,0.75138 0.296333,0.0106 0.635103,0.0106 0.899686,-0.0212 0.243417,-0.0212 0.476375,-0.0952 0.656291,-0.22221 0.338667,-0.22225 0.47594,-0.74085 0.47594,-1.3441 0,-0.74083 -0.232689,-1.55567 -1.174605,-2.56108 0.444499,-0.97367 0.931064,-2.16955 1.312064,-3.13263 z m 2.6990604,0.0424 v 3.05872 c 0,1.68275 -0.09511,3.98973 -1.174606,5.63015 0.201084,0.0847 0.539647,0.2859 0.687814,0.4129 1.121833,-1.70392 1.280542,-4.26505 1.280542,-6.04305 v -0.48679 h 3.354834 v 1.17461 h -3.12229 v 0.69866 h 3.12229 v 1.24902 h -2.518709 v 3.39721 h 0.76171 V 296.3 h 4.434355 v 0.34933 h 0.783414 v -3.37602 h -2.677355 v -1.24902 h 3.449918 v -0.69866 h -3.449918 v -1.17461 h 2.814815 v -2.57193 z m 45.24375,0.43408 v 0.77256 h 2.306836 v 6.4239 h -2.43396 v 0.78341 h 5.746935 v -0.78341 h -2.476852 v -6.4239 h 2.254645 v -0.77256 z m -12.520167,0.0315 h 5.471501 v 0.85731 h -5.471501 z m 74.083334,0 h 5.4715 v 0.85731 h -5.4715 z m -106.013167,0.23314 h 6.170166 v 1.16427 h -6.170166 z m 54.048896,0.12712 h 2.667021 c -0.232833,0.41275 -0.518335,0.86773 -0.804085,1.21698 h -2.910416 c 0.391583,-0.39158 0.740563,-0.80423 1.04748,-1.21698 z m 74.083331,0 h 2.66702 c -0.23283,0.41275 -0.51833,0.86773 -0.80408,1.21698 h -2.91042 c 0.39158,-0.39158 0.74056,-0.80423 1.04748,-1.21698 z m 31.75,0 h 2.66702 c -0.23283,0.41275 -0.51833,0.86773 -0.80408,1.21698 h -2.91042 c 0.39158,-0.39158 0.74056,-0.80423 1.04748,-1.21698 z m 10.79521,0.25374 h 3.31246 c -0.43391,0.57149 -1.00525,1.06908 -1.68259,1.49241 -0.67733,-0.40217 -1.24918,-0.88885 -1.6831,-1.43919 z m -18.72186,0.49764 c -0.27516,1.11125 -0.76231,2.19075 -1.37614,2.91042 0.1905,0.0952 0.49752,0.31766 0.6351,0.43408 0.35984,-0.45508 0.70927,-1.04815 0.98444,-1.72548 h 3.19619 v -0.67696 h -2.93161 c 0.0741,-0.254 0.15846,-0.52917 0.23255,-0.79375 z m -2.78381,0.22221 v 3.60908 h 0.77257 v -3.60908 z m -139.265912,0.0315 h 2.222604 v 2.21227 h -2.222604 z m 52.916666,0 h 2.222604 v 2.21227 h -2.222604 z m 21.166667,0 h 2.222608 v 2.21227 h -2.222608 z m 52.916669,0 h 2.2226 v 2.21227 h -2.2226 z m -104.976024,0.0636 h 5.471501 v 0.85732 h -5.471501 z m 74.083334,0 h 5.4715 v 0.85732 h -5.4715 z m 41.21144,0.26459 v 2.98483 h 0.74104 v -2.98483 z m -156.8658791,0.0108 -0.550354,0.32815 c 0.381,0.39158 0.8252108,0.93129 1.0262941,1.28054 l 0.5823932,-0.40256 c -0.2116659,-0.33867 -0.6455833,-0.83571 -1.0583333,-1.20613 z m 192.8388691,0.0739 h 2.69855 c -0.24341,1.53458 -0.64557,2.75194 -1.30173,3.71502 -0.66675,-1.00542 -1.12165,-2.2651 -1.39682,-3.71502 z m -130.153808,0.51883 h 2.507858 v 1.91565 h -2.507858 z m 3.291273,0 h 2.688207 v 1.91565 h -2.688207 z m 70.792055,0 h 2.50786 v 1.91565 h -2.50786 z m 3.29128,0 h 2.6882 v 1.91565 h -2.6882 z m 28.45872,0 h 2.50786 v 1.91565 h -2.50786 z m 3.29128,0 h 2.6882 v 1.91565 h -2.6882 z m -8.85838,0.59273 -0.61391,0.30644 c 0.48683,0.55033 0.98438,1.34435 1.18545,1.86294 l 0.64544,-0.35967 c -0.22225,-0.51858 -0.71956,-1.25938 -1.21698,-1.80971 z m -138.620474,0.10542 -0.613918,0.36018 c 0.582083,0.762 1.291188,1.80982 1.608688,2.44482 l 0.666626,-0.4129 c -0.338667,-0.62441 -1.068729,-1.64069 -1.661396,-2.3921 z m 52.916666,0 -0.613918,0.36018 c 0.582083,0.762 1.291188,1.80982 1.608688,2.44482 l 0.666626,-0.4129 c -0.338667,-0.62441 -1.068729,-1.64069 -1.661396,-2.3921 z m 21.166668,0 -0.61392,0.36018 c 0.58208,0.762 1.29119,1.80982 1.60869,2.44482 l 0.66662,-0.4129 c -0.33866,-0.62441 -1.06872,-1.64069 -1.66139,-2.3921 z m 52.91666,0 -0.61391,0.36018 c 0.58208,0.762 1.29118,1.80982 1.60868,2.44482 l 0.66663,-0.4129 c -0.33867,-0.62441 -1.06873,-1.64069 -1.6614,-2.3921 z m -118.724015,0.0424 v 5.58829 h 0.719854 v -0.55035 h 3.96875 v 0.49713 h 0.751375 v -5.53507 z m 74.083335,0 v 5.58829 h 0.71985 v -0.55035 h 3.96875 v 0.49713 h 0.75138 v -5.53507 z m -66.992296,0.56121 v 0.709 h 4.339273 v 3.18534 c -0.910167,-0.24342 -1.587646,-0.73009 -2.000396,-1.68259 0.105834,-0.33866 0.201351,-0.68791 0.275434,-1.05833 l -0.79375,-0.10594 c -0.28575,1.54517 -0.952952,2.7305 -2.053619,3.43959 0.169334,0.127 0.47656,0.42362 0.582393,0.5612 0.687917,-0.508 1.238311,-1.16456 1.651061,-1.99006 0.85725,1.42875 2.201169,1.76785 4.328419,1.76785 h 2.878894 c 0.04233,-0.23283 0.169085,-0.57197 0.274918,-0.75189 -0.53975,0.0106 -2.73019,0.0109 -3.121773,0.0109 -0.4445,0 -0.868019,-0.0212 -1.249019,-0.0636 v -1.43918 h 3.492294 v -0.69867 h -3.492294 v -1.1746 h 4.180107 v -0.70901 z m 74.083336,0 v 0.709 h 4.33927 v 3.18534 c -0.91017,-0.24342 -1.58765,-0.73009 -2.0004,-1.68259 0.10584,-0.33866 0.20135,-0.68791 0.27544,-1.05833 l -0.79375,-0.10594 c -0.28575,1.54517 -0.95295,2.7305 -2.05362,3.43959 0.16933,0.127 0.47656,0.42362 0.58239,0.5612 0.68792,-0.508 1.23831,-1.16456 1.65106,-1.99006 0.85725,1.42875 2.20117,1.76785 4.32842,1.76785 h 2.8789 c 0.0423,-0.23283 0.16908,-0.57197 0.27491,-0.75189 -0.53975,0.0106 -2.73019,0.0109 -3.12177,0.0109 -0.4445,0 -0.86802,-0.0212 -1.24902,-0.0636 v -1.43918 h 3.4923 v -0.69867 h -3.4923 v -1.1746 h 4.18011 v -0.70901 z m 67.72299,0.0739 v 1.13223 h -4.24418 v 0.69866 h 3.54552 c -0.92075,0.98425 -2.40246,1.86259 -3.74654,2.2965 0.16933,0.16934 0.40214,0.44488 0.50798,0.64596 1.40758,-0.52917 2.95297,-1.54523 3.93722,-2.7094 v 2.88923 h 0.7829 v -2.87889 c 0.98425,1.143 2.52942,2.14869 3.96875,2.65669 0.10584,-0.20109 0.33867,-0.49781 0.52917,-0.66715 -1.38642,-0.41275 -2.86817,-1.25927 -3.78892,-2.23294 h 3.5879 v -0.69866 h -4.2969 V 291.7174 Z M 5.111685,291.7386 4.9742257,291.781 H 1.3651435 v 0.709 h 3.249414 c -0.3809992,0.74083 -0.9419992,1.62969 -1.4076659,2.23294 -0.3280833,-0.30692 -0.656332,-0.60307 -0.9632486,-0.86765 l -0.5395021,0.40204 c 0.79375,0.70908 1.7670033,1.70412 2.2220867,2.32854 l 0.5823934,-0.47646 c -0.2010833,-0.254 -0.47625,-0.57133 -0.79375,-0.88883 0.5926667,-0.8255 1.4391267,-2.10606 1.9047933,-3.15381 z m 31.506604,0.0527 h 1.619539 v 1.45004 h -1.619539 z m 2.338875,0 h 1.629875 v 1.45004 h -1.629875 z m 71.744456,0 h 1.61954 v 1.45004 h -1.61954 z m 2.33888,0 h 1.62987 v 1.45004 h -1.62987 z m 18.92287,0.0109 -0.52917,0.38086 c 0.49742,0.41275 1.04773,0.98431 1.30173,1.38647 l 0.54002,-0.42323 c -0.26458,-0.40216 -0.82575,-0.9631 -1.31258,-1.3441 z m -109.124602,0.51832 h 2.222604 v 2.54041 h -2.222604 z m 52.916666,0 h 2.222604 v 2.54041 h -2.222604 z m 21.166667,0 h 2.222608 v 2.54041 h -2.222608 z m 52.916669,0 h 2.2226 v 2.54041 h -2.2226 z m 10.60452,1.02681 v 2.36006 h -1.16427 v 0.68781 h 9.54618 v -0.68781 h -1.11104 v -2.36006 z M 36.618289,293.9292 h 1.619539 v 1.49242 h -1.619539 z m 2.338875,0 h 1.629875 v 1.49242 h -1.629875 z m 71.744456,0 h 1.61954 v 1.49242 h -1.61954 z m 2.33888,0 h 1.62987 v 1.49242 h -1.62987 z m -98.509752,0.0424 h 4.434355 v 1.62987 h -4.434355 z m 146.642722,0.0108 h 1.46038 v 1.72496 h -1.46038 z m 2.14871,0 h 1.46038 v 1.72496 h -1.46038 z m 2.13785,0 h 1.4919 v 1.72496 h -1.4919 z m 29.04061,0.37052 c -1.29117,0.34925 -2.61413,0.68775 -3.48196,0.88884 l 0.14831,0.73019 c 0.96309,-0.254 2.21166,-0.62459 3.42873,-0.96325 z m -63.839,0.0315 c -1.18533,0.34925 -2.37042,0.69834 -3.18533,0.88884 l 0.17983,0.76222 c 0.889,-0.28575 2.02138,-0.63518 3.13263,-0.98443 z m -73.575351,0.1695 c -1.375833,0.28575 -2.794021,0.58177 -3.725354,0.74052 l 0.148312,0.80461 c 1.005416,-0.23284 2.349706,-0.52944 3.651456,-0.80461 z"
       id="text817"
       inkscape:connector-curvature="0" />
  </g>
</svg>
