<?xml version="1.0" encoding="UTF-8" standalone="no"?>
<!-- Created with Inkscape (http://www.inkscape.org/) -->

<svg
   xmlns:dc="http://purl.org/dc/elements/1.1/"
   xmlns:cc="http://creativecommons.org/ns#"
   xmlns:rdf="http://www.w3.org/1999/02/22-rdf-syntax-ns#"
   xmlns:svg="http://www.w3.org/2000/svg"
   xmlns="http://www.w3.org/2000/svg"
   xmlns:sodipodi="http://sodipodi.sourceforge.net/DTD/sodipodi-0.dtd"
   xmlns:inkscape="http://www.inkscape.org/namespaces/inkscape"
   width="143.00002mm"
   height="11mm"
   viewBox="0 0 143.00001 11"
   version="1.1"
   id="svg8"
   inkscape:version="0.92.4 (33fec40, 2019-01-16)"
   sodipodi:docname="cinese_esempio_splitted.svg"
   inkscape:export-filename="/home/mark/Desktop/cinese_esempio_splitted.png"
   inkscape:export-xdpi="82"
   inkscape:export-ydpi="82">
  <defs
     id="defs2" />
  <sodipodi:namedview
     id="base"
     pagecolor="#ffffff"
     bordercolor="#666666"
     borderopacity="1.0"
     inkscape:pageopacity="0.0"
     inkscape:pageshadow="2"
     inkscape:zoom="1.4"
     inkscape:cx="205.06991"
     inkscape:cy="-66.159885"
     inkscape:document-units="mm"
     inkscape:current-layer="layer1"
     showgrid="false"
     inkscape:window-width="1855"
     inkscape:window-height="1016"
     inkscape:window-x="65"
     inkscape:window-y="28"
     inkscape:window-maximized="1" />
  <metadata
     id="metadata5">
    <rdf:RDF>
      <cc:Work
         rdf:about="">
        <dc:format>image/svg+xml</dc:format>
        <dc:type
           rdf:resource="http://purl.org/dc/dcmitype/StillImage" />
        <dc:title />
      </cc:Work>
    </rdf:RDF>
  </metadata>
  <g
     inkscape:label="Livello 1"
     inkscape:groupmode="layer"
     id="layer1"
     transform="translate(0,-286)">
    <path
       style="font-style:normal;font-variant:normal;font-weight:normal;font-stretch:normal;font-size:10.58333302px;line-height:1.25;font-family:monospace;-inkscape-font-specification:monospace;letter-spacing:0px;word-spacing:0px;fill:#000000;fill-opacity:1;stroke:none;stroke-width:0.26458332"
       d="m 3.3548341,286.74251 c -0.5715003,1.28059 -1.6716916,2.64567 -2.95227469,3.53467 0.17991669,0.127 0.43368928,0.381 0.56068928,0.52917 0.97366671,-0.70909 1.82016791,-1.65078 2.47633461,-2.67736 0.8466666,0.73025 1.8202505,1.67184 2.2965007,2.30684 l 0.4873086,-0.62425 c -0.4974167,-0.61384 -1.5346246,-1.5665 -2.4236246,-2.28617 0.1058333,-0.1905 0.2011047,-0.36991 0.2857706,-0.54983 z m 6.0854166,0.53951 -0.1162722,0.0424 H 6.5933959 V 296.405 H 7.323584 v -8.36073 h 1.6831014 c -0.28575,0.81491 -0.6987889,1.93667 -1.0903728,2.82567 0.9419169,0.96309 1.2066447,1.72535 1.2066447,2.3921 0,0.35984 -0.06325,0.68769 -0.2749187,0.82528 -0.1164159,0.0635 -0.2649966,0.0953 -0.4237466,0.10593 -0.2116672,0.0106 -0.5077728,0.0106 -0.8252728,-0.0212 0.1375831,0.22225 0.2116246,0.5397 0.2222088,0.75137 0.296333,0.0106 0.6351037,0.0106 0.8996867,-0.0212 0.243417,-0.0212 0.4763746,-0.0952 0.6562905,-0.22221 0.3386672,-0.22225 0.4759399,-0.74085 0.4759399,-1.3441 0,-0.74083 -0.2326891,-1.55567 -1.1746052,-2.56108 0.4444989,-0.97367 0.9310647,-2.16955 1.3120647,-3.13263 z m -6.1484621,2.21226 -0.5503539,0.32815 c 0.381,0.39158 0.8252108,0.93129 1.0262938,1.28054 l 0.5823934,-0.40256 C 4.1384561,290.36174 3.7045386,289.8647 3.2917886,289.49428 Z m 1.8200439,1.98955 -0.1374593,0.0424 H 1.3652913 v 0.709 h 3.249414 c -0.3809992,0.74083 -0.9419992,1.62969 -1.4076659,2.23294 -0.3280833,-0.30692 -0.6563321,-0.60307 -0.9632487,-0.86765 l -0.539502,0.40205 c 0.79375,0.70908 1.7670031,1.70412 2.2220866,2.32854 l 0.5823935,-0.47646 c -0.2010834,-0.254 -0.47625,-0.57133 -0.79375,-0.88883 0.5926666,-0.8255 1.4391266,-2.10607 1.904793,-3.15382 z"
       id="text817"
       inkscape:connector-curvature="0"
       sodipodi:nodetypes="cccccccccccccccccsccccccsccccccccccccccccccccc" />
    <path
       inkscape:connector-curvature="0"
       style="font-style:normal;font-variant:normal;font-weight:normal;font-stretch:normal;font-size:10.58333302px;line-height:1.25;font-family:monospace;-inkscape-font-specification:monospace;letter-spacing:0px;word-spacing:0px;fill:#000000;fill-opacity:1;stroke:none;stroke-width:0.26458332"
       d="m 17.244903,286.72137 c -0.571501,1.28059 -1.671692,2.64567 -2.952275,3.53467 0.179916,0.127 0.433689,0.381 0.560689,0.52917 0.973667,-0.70909 1.820168,-1.65078 2.476335,-2.67736 0.846667,0.73025 1.82025,1.67184 2.296501,2.30684 l 0.487308,-0.62425 c -0.497416,-0.61384 -1.534624,-1.5665 -2.423624,-2.28617 0.105833,-0.1905 0.201104,-0.36992 0.28577,-0.54984 z m 6.085416,0.53946 -0.116272,0.0424 h -2.730582 v 9.08058 h 0.730188 v -8.36073 h 1.683101 c -0.28575,0.81491 -0.698789,1.93667 -1.090373,2.82567 0.941917,0.96309 1.206645,1.72535 1.206645,2.3921 0,0.35984 -0.06325,0.68768 -0.274919,0.82527 -0.116416,0.0635 -0.264996,0.0953 -0.423746,0.10594 -0.211668,0.0106 -0.507773,0.0106 -0.825273,-0.0212 0.137583,0.22225 0.211624,0.53971 0.222209,0.75138 0.296333,0.0106 0.635103,0.0106 0.899686,-0.0212 0.243417,-0.0212 0.476375,-0.0952 0.656291,-0.22221 0.338667,-0.22225 0.47594,-0.74085 0.47594,-1.3441 0,-0.74083 -0.232689,-1.55568 -1.174605,-2.56109 0.444498,-0.97367 0.931064,-2.16954 1.312064,-3.13262 z m 2.69906,0.0424 v 3.05873 c 0,1.68275 -0.09511,3.98972 -1.174605,5.63014 0.201084,0.0847 0.539646,0.2859 0.687814,0.4129 1.121832,-1.70392 1.280541,-4.26504 1.280541,-6.04304 v -0.48679 h 3.354834 v 1.1746 h -3.12229 v 0.69867 h 3.12229 v 1.24902 h -2.518709 v 3.3972 h 0.761711 v -0.37052 h 4.434354 v 0.34934 h 0.783415 v -3.37602 h -2.677356 v -1.24902 h 3.449919 v -0.69867 h -3.449919 v -1.1746 h 2.814815 v -2.57194 z m 0.79375,0.69864 h 6.170166 v 1.16427 h -6.170166 z m -9.641272,1.47129 -0.550354,0.32815 c 0.381,0.39158 0.825211,0.93129 1.026294,1.28054 l 0.582394,-0.40256 c -0.211666,-0.33867 -0.645584,-0.83571 -1.058334,-1.20613 z m 1.820044,1.98959 -0.137459,0.0424 H 15.25536 v 0.709 h 3.249414 c -0.380999,0.74083 -0.941999,1.62969 -1.407666,2.23294 -0.328083,-0.30692 -0.656332,-0.60307 -0.963249,-0.86765 l -0.539502,0.40204 c 0.79375,0.70909 1.767003,1.70413 2.222087,2.32855 l 0.582393,-0.47646 c -0.201083,-0.254 -0.47625,-0.57134 -0.79375,-0.88884 0.592667,-0.8255 1.439127,-2.10606 1.904793,-3.15381 z m 9.419064,2.2329 h 4.434354 v 1.62988 h -4.434354 z"
       id="text817-3"
       sodipodi:nodetypes="cccccccccccccccccsccccccsccccsccscccccccccccccccccccccccccccccccccccccccccccccccccccc" />
    <path
       inkscape:connector-curvature="0"
       style="font-style:normal;font-variant:normal;font-weight:normal;font-stretch:normal;font-size:10.58333302px;line-height:1.25;font-family:monospace;-inkscape-font-specification:monospace;letter-spacing:0px;word-spacing:0px;fill:#000000;fill-opacity:1;stroke:none;stroke-width:0.26458332"
       d="m 99.396655,286.70014 c -0.33867,1.44991 -0.909942,2.9103 -1.619025,3.84163 0.169334,0.10583 0.507856,0.31741 0.645438,0.44441 0.370417,-0.49742 0.698437,-1.143 0.994777,-1.85208 h 2.688205 c -0.13759,4.21216 -0.29619,5.82093 -0.64544,6.19135 -0.10584,0.13758 -0.22242,0.15865 -0.43409,0.15865 -0.24341,0 -0.87839,-3e-5 -1.566305,-0.0636 0.14817,0.22225 0.24342,0.53973 0.26459,0.77256 0.592655,0.0318 1.195885,0.0532 1.566305,0.0109 0.35983,-0.0317 0.60329,-0.12741 0.83612,-0.42374 0.42333,-0.51859 0.56086,-2.14825 0.73019,-6.97425 v -0.40205 h -3.164145 c 0.17992,-0.49742 0.327755,-1.00534 0.454755,-1.52393 z m -3.767731,0.0206 c -0.07408,0.49741 -0.26448,1.20662 -0.42323,1.71462 h -1.185457 v 7.70496 h 0.719853 v -0.83612 h 2.942456 v -6.86884 h -1.756999 c 0.179917,-0.45508 0.370437,-1.03688 0.550354,-1.55546 z m 13.197646,0.0321 v 1.50275 h -1.49242 v 0.71985 h 1.49242 v 1.37563 h 0.76222 v -1.37563 h 1.85209 v 1.37563 h 0.76171 v -1.37563 h 1.42885 v -0.71985 h -1.42885 v -1.50275 h -0.76171 v 1.50275 h -1.85209 v -1.50275 z m -2.0743,0.21182 c -0.20108,0.381 -0.47649,0.76181 -0.78341,1.13223 -0.27517,-0.37042 -0.60321,-0.74086 -1.01596,-1.1007 l -0.55036,0.42323 c 0.45509,0.40217 0.80436,0.81483 1.07953,1.23816 -0.4445,0.46566 -0.93092,0.88892 -1.42834,1.23817 0.16933,0.14816 0.40215,0.37068 0.50798,0.54002 0.45508,-0.3175 0.87837,-0.68769 1.28054,-1.08986 0.1905,0.43392 0.29592,0.8885 0.37,1.34359 -0.47625,0.97366 -1.34383,2.00039 -2.127,2.52956 0.1905,0.13758 0.41275,0.40223 0.52917,0.59273 0.58208,-0.47625 1.20635,-1.19575 1.70377,-1.94717 0.0106,0.17992 0.0108,0.35958 0.0108,0.5395 0,1.34408 -0.0953,2.59319 -0.34933,2.92127 -0.0847,0.11642 -0.17973,0.169 -0.33848,0.19017 -0.22225,0.0212 -0.61388,0.0214 -1.10071,-0.0103 0.13758,0.22225 0.22221,0.50795 0.22221,0.75137 0.42333,0.0318 0.84654,0.0317 1.19579,-0.0424 0.254,-0.0423 0.44456,-0.15856 0.59273,-0.33848 0.41275,-0.57149 0.52917,-1.95794 0.52917,-3.46077 0,-1.27 -0.106,-2.49761 -0.69867,-3.64061 0.37042,-0.43392 0.70901,-0.88901 0.97359,-1.3441 z m -12.01218,2.17969 h 2.222603 v 2.21226 H 94.74009 Z m 4.783685,1.62996 -0.61391,0.36018 c 0.58208,0.762 1.291185,1.80982 1.608685,2.44482 l 0.66662,-0.4129 c -0.33867,-0.62441 -1.06873,-1.64069 -1.661395,-2.3921 z m 8.275975,0.0424 v 5.58829 h 0.71986 v -0.55035 h 3.96875 v 0.49713 h 0.75137 v -5.53507 z m 0.71986,0.70901 h 1.61954 v 1.45004 h -1.61954 z m 2.33887,0 h 1.62988 v 1.45004 h -1.62988 z m -16.11839,0.52921 h 2.222603 v 2.54042 H 94.74009 Z m 13.77952,1.60859 h 1.61954 v 1.49241 h -1.61954 z m 2.33887,0 h 1.62988 v 1.49241 h -1.62988 z"
       id="text817-3-2"
       sodipodi:nodetypes="ccccccscccccccccccccccccccccccccccccccccccccccccccccccccccccsccccccsccccccccccccccccccccccccccccccccccccccccccccccc" />
    <path
       inkscape:connector-curvature="0"
       style="font-style:normal;font-variant:normal;font-weight:normal;font-stretch:normal;font-size:10.58333302px;line-height:1.25;font-family:monospace;-inkscape-font-specification:monospace;letter-spacing:0px;word-spacing:0px;fill:#000000;fill-opacity:1;stroke:none;stroke-width:0.26458332"
       d="m 70.536969,286.68987 c -0.338667,1.44991 -0.909941,2.9103 -1.619024,3.84163 0.169334,0.10583 0.507856,0.31741 0.645438,0.44441 0.37042,-0.49742 0.69844,-1.143 0.994773,-1.85208 h 2.688209 c -0.137583,4.21216 -0.29619,5.82093 -0.64544,6.19135 -0.105833,0.13758 -0.222414,0.15865 -0.434081,0.15865 -0.243416,0 -0.878398,-3e-5 -1.566312,-0.0636 0.148164,0.22225 0.243414,0.53973 0.264583,0.77256 0.592667,0.0318 1.195896,0.0532 1.566313,0.0109 0.359833,-0.0317 0.603289,-0.12741 0.836123,-0.42374 0.423333,-0.51859 0.560855,-2.14825 0.730189,-6.97425 v -0.40205 h -3.164147 c 0.179914,-0.49742 0.327753,-1.00534 0.454753,-1.52393 z m -3.76773,0.0206 c -0.07408,0.49741 -0.26448,1.20662 -0.42323,1.71462 h -1.185457 v 7.70496 h 0.719853 v -0.83612 h 2.942456 v -6.86884 h -1.756999 c 0.179917,-0.45508 0.370437,-1.03688 0.550354,-1.55546 z m -11.58844,0.59276 v 3.05873 c 0,1.68275 -0.09511,3.98972 -1.174605,5.63014 0.201084,0.0847 0.539646,0.2859 0.687814,0.4129 1.121832,-1.70392 1.280541,-4.26504 1.280541,-6.04304 v -0.48679 h 3.354834 v 1.1746 h -3.12229 v 0.69867 h 3.12229 v 1.24902 h -2.518709 v 3.3972 h 0.761711 v -0.37052 h 4.434354 v 0.34934 h 0.783415 v -3.37602 h -2.677356 v -1.24902 h 3.449919 v -0.69867 h -3.449919 v -1.1746 h 2.814815 v -2.57194 z m 0.79375,0.69864 h 6.170166 v 1.16427 h -6.170166 z m 9.905856,1.13221 h 2.222603 v 2.21226 h -2.222603 z m 4.783688,1.62996 -0.613915,0.36018 c 0.582083,0.762 1.291187,1.80982 1.608687,2.44482 l 0.666626,-0.4129 c -0.338667,-0.62441 -1.068731,-1.64069 -1.661398,-2.3921 z m -4.783688,1.28062 h 2.222603 v 2.54042 h -2.222603 z m -8.30802,1.65099 h 4.434354 v 1.62988 h -4.434354 z"
       id="text817-3-9"
       sodipodi:nodetypes="ccccccscccccccccccccccccccccsccsccccccccccccccccccccccccccccccccccccccccccccccccc" />
    <path
       inkscape:connector-curvature="0"
       style="font-style:normal;font-variant:normal;font-weight:normal;font-stretch:normal;font-size:10.58333302px;line-height:1.25;font-family:monospace;-inkscape-font-specification:monospace;letter-spacing:0px;word-spacing:0px;fill:#000000;fill-opacity:1;stroke:none;stroke-width:0.26458332"
       d="m 40.977194,287.30323 v 3.05873 c 0,1.68275 -0.09511,3.98972 -1.174605,5.63014 0.201084,0.0847 0.539646,0.2859 0.687814,0.4129 1.121832,-1.70392 1.280541,-4.26504 1.280541,-6.04304 v -0.48679 h 3.354834 v 1.1746 h -3.12229 v 0.69867 h 3.12229 v 1.24902 h -2.518709 v 3.3972 h 0.761711 v -0.37052 h 4.434354 v 0.34934 h 0.783415 v -3.37602 h -2.677356 v -1.24902 h 3.449919 v -0.69867 h -3.449919 v -1.1746 h 2.814815 v -2.57194 z m 0.79375,0.69864 h 6.170166 v 1.16427 h -6.170166 z m 1.597836,5.69378 h 4.434354 v 1.62988 H 43.36878 Z"
       id="text817-3-9-1"
       sodipodi:nodetypes="csccscccccccccccccccccccccccccccccccccc" />
    <path
       inkscape:connector-curvature="0"
       style="font-style:normal;font-variant:normal;font-weight:normal;font-stretch:normal;font-size:10.58333302px;line-height:1.25;font-family:monospace;-inkscape-font-specification:monospace;letter-spacing:0px;word-spacing:0px;fill:#000000;fill-opacity:1;stroke:none;stroke-width:0.26458332"
       d="m 84.678223,286.87758 c -0.338667,1.44991 -0.909941,2.9103 -1.619024,3.84163 0.169334,0.10583 0.507856,0.31741 0.645438,0.44441 0.37042,-0.49742 0.69844,-1.143 0.994773,-1.85208 h 2.688209 c -0.137583,4.21216 -0.29619,5.82093 -0.64544,6.19135 -0.105833,0.13758 -0.222414,0.15865 -0.434081,0.15865 -0.243416,0 -0.878398,-3e-5 -1.566312,-0.0636 0.148164,0.22225 0.243414,0.53973 0.264583,0.77256 0.592667,0.0318 1.195896,0.0532 1.566313,0.0109 0.359833,-0.0317 0.603289,-0.12741 0.836123,-0.42374 0.423333,-0.51859 0.560855,-2.14825 0.730189,-6.97425 v -0.40205 h -3.164147 c 0.179914,-0.49742 0.327753,-1.00534 0.454753,-1.52393 z m -3.76773,0.0206 c -0.07408,0.49741 -0.26448,1.20662 -0.42323,1.71462 h -1.185457 v 7.70496 h 0.719853 v -0.83612 h 2.942456 v -6.86884 h -1.756999 c 0.179917,-0.45508 0.370437,-1.03688 0.550354,-1.55546 z m -0.888834,2.42361 h 2.222603 v 2.21226 h -2.222603 z m 4.783688,1.62996 -0.613915,0.36018 c 0.582083,0.762 1.291187,1.80982 1.608687,2.44482 l 0.666626,-0.4129 c -0.338667,-0.62441 -1.068731,-1.64069 -1.661398,-2.3921 z m -4.783688,1.28062 h 2.222603 v 2.54042 h -2.222603 z"
       id="text817-3-2-2"
       sodipodi:nodetypes="ccccccsccccccccccccccccccccccccccccccccccc" />
    <path
       inkscape:connector-curvature="0"
       style="font-style:normal;font-variant:normal;font-weight:normal;font-stretch:normal;font-size:10.58333302px;line-height:1.25;font-family:monospace;-inkscape-font-specification:monospace;letter-spacing:0px;word-spacing:0px;fill:#000000;fill-opacity:1;stroke:none;stroke-width:0.26458332"
       d="m 123.90931,286.75284 v 1.50275 h -1.49241 v 0.71985 h 1.49241 v 1.37563 h 0.76223 v -1.37563 h 1.85208 v 1.37563 h 0.76171 v -1.37563 h 1.42885 v -0.71985 h -1.42885 v -1.50275 h -0.76171 v 1.50275 h -1.85208 v -1.50275 z m -2.07429,0.21182 c -0.20109,0.381 -0.4765,0.76181 -0.78341,1.13223 -0.27517,-0.37042 -0.60321,-0.74086 -1.01596,-1.1007 l -0.55036,0.42323 c 0.45509,0.40217 0.80436,0.81483 1.07952,1.23816 -0.4445,0.46566 -0.93092,0.88892 -1.42834,1.23817 0.16934,0.14816 0.40215,0.37068 0.50799,0.54002 0.45508,-0.3175 0.87837,-0.68769 1.28054,-1.08986 0.1905,0.43392 0.29592,0.8885 0.37,1.34359 -0.47625,0.97366 -1.34384,2.00039 -2.127,2.52956 0.1905,0.13758 0.41275,0.40223 0.52916,0.59273 0.58209,-0.47625 1.20636,-1.19575 1.70378,-1.94717 0.0106,0.17992 0.0109,0.35958 0.0109,0.5395 0,1.34408 -0.0953,2.59319 -0.34933,2.92127 -0.0847,0.11642 -0.17974,0.169 -0.33849,0.19017 -0.22225,0.0212 -0.61387,0.0214 -1.1007,-0.0103 0.13758,0.22225 0.22221,0.50795 0.22221,0.75137 0.42333,0.0318 0.84654,0.0317 1.19579,-0.0424 0.254,-0.0423 0.44456,-0.15856 0.59273,-0.33848 0.41275,-0.57149 0.52916,-1.95794 0.52916,-3.46077 0,-1.27 -0.106,-2.49761 -0.69866,-3.64061 0.37042,-0.43392 0.709,-0.88901 0.97358,-1.3441 z m 1.04748,3.85205 v 5.58829 h 0.71985 v -0.55035 h 3.96875 v 0.49713 h 0.75138 v -5.53507 z m 0.71985,0.70901 h 1.61954 v 1.45004 h -1.61954 z m 2.33888,0 h 1.62987 v 1.45004 h -1.62987 z m -2.33888,2.1378 h 1.61954 v 1.49241 h -1.61954 z m 2.33888,0 h 1.62987 v 1.49241 h -1.62987 z"
       id="text817-3-2-2-7"
       sodipodi:nodetypes="cccccccccccccccccccccccccccccccccsccccccscccccccccccccccccccccccccccccccc" />
    <text
       xml:space="preserve"
       style="font-style:normal;font-variant:normal;font-weight:normal;font-stretch:normal;font-size:10.58333302px;line-height:1.25;font-family:monospace;-inkscape-font-specification:monospace;letter-spacing:0px;word-spacing:0px;fill:#000000;fill-opacity:1;stroke:none;stroke-width:0.26458332"
       x="10.795251"
       y="295.29913"
       id="text4666"><tspan
         sodipodi:role="line"
         id="tspan4664"
         x="10.795251"
         y="295.29913"
         style="font-style:normal;font-variant:normal;font-weight:normal;font-stretch:normal;font-family:aakar;-inkscape-font-specification:aakar;stroke-width:0.26458332">,</tspan></text>
    <text
       xml:space="preserve"
       style="font-style:normal;font-variant:normal;font-weight:normal;font-stretch:normal;font-size:10.58333302px;line-height:1.25;font-family:monospace;-inkscape-font-specification:monospace;letter-spacing:0px;word-spacing:0px;fill:#000000;fill-opacity:1;stroke:none;stroke-width:0.26458332"
       x="35.509064"
       y="295.29913"
       id="text4666-1"><tspan
         sodipodi:role="line"
         id="tspan4664-0"
         x="35.509064"
         y="295.29913"
         style="font-style:normal;font-variant:normal;font-weight:normal;font-stretch:normal;font-family:aakar;-inkscape-font-specification:aakar;stroke-width:0.26458332">,</tspan></text>
    <text
       xml:space="preserve"
       style="font-style:normal;font-variant:normal;font-weight:normal;font-stretch:normal;font-size:10.58333302px;line-height:1.25;font-family:monospace;-inkscape-font-specification:monospace;letter-spacing:0px;word-spacing:0px;fill:#000000;fill-opacity:1;stroke:none;stroke-width:0.26458332"
       x="49.839733"
       y="295.29913"
       id="text4666-8"><tspan
         sodipodi:role="line"
         id="tspan4664-5"
         x="49.839733"
         y="295.29913"
         style="font-style:normal;font-variant:normal;font-weight:normal;font-stretch:normal;font-family:aakar;-inkscape-font-specification:aakar;stroke-width:0.26458332">,</tspan></text>
    <text
       xml:space="preserve"
       style="font-style:normal;font-variant:normal;font-weight:normal;font-stretch:normal;font-size:10.58333302px;line-height:1.25;font-family:monospace;-inkscape-font-specification:monospace;letter-spacing:0px;word-spacing:0px;fill:#000000;fill-opacity:1;stroke:none;stroke-width:0.26458332"
       x="74.463539"
       y="295.29913"
       id="text4666-0"><tspan
         sodipodi:role="line"
         id="tspan4664-6"
         x="74.463539"
         y="295.29913"
         style="font-style:normal;font-variant:normal;font-weight:normal;font-stretch:normal;font-family:aakar;-inkscape-font-specification:aakar;stroke-width:0.26458332">,</tspan></text>
    <text
       xml:space="preserve"
       style="font-style:normal;font-variant:normal;font-weight:normal;font-stretch:normal;font-size:10.58333302px;line-height:1.25;font-family:monospace;-inkscape-font-specification:monospace;letter-spacing:0px;word-spacing:0px;fill:#000000;fill-opacity:1;stroke:none;stroke-width:0.26458332"
       x="89.061478"
       y="295.29913"
       id="text4666-4"><tspan
         sodipodi:role="line"
         id="tspan4664-62"
         x="89.061478"
         y="295.29913"
         style="font-style:normal;font-variant:normal;font-weight:normal;font-stretch:normal;font-family:aakar;-inkscape-font-specification:aakar;stroke-width:0.26458332">,</tspan></text>
    <text
       xml:space="preserve"
       style="font-style:normal;font-variant:normal;font-weight:normal;font-stretch:normal;font-size:10.58333302px;line-height:1.25;font-family:monospace;-inkscape-font-specification:monospace;letter-spacing:0px;word-spacing:0px;fill:#000000;fill-opacity:1;stroke:none;stroke-width:0.26458332"
       x="114.7085"
       y="295.29913"
       id="text4666-5"><tspan
         sodipodi:role="line"
         id="tspan4664-8"
         x="114.7085"
         y="295.29913"
         style="font-style:normal;font-variant:normal;font-weight:normal;font-stretch:normal;font-family:aakar;-inkscape-font-specification:aakar;stroke-width:0.26458332">,</tspan></text>
    <text
       xml:space="preserve"
       style="font-style:normal;font-variant:normal;font-weight:normal;font-stretch:normal;font-size:10.58333302px;line-height:1.25;font-family:monospace;-inkscape-font-specification:monospace;letter-spacing:0px;word-spacing:0px;fill:#000000;fill-opacity:1;stroke:none;stroke-width:0.26458332"
       x="128.69028"
       y="296.405"
       id="text4720"><tspan
         sodipodi:role="line"
         id="tspan4718"
         x="128.69028"
         y="296.405"
         style="font-size:8.46666622px;stroke-width:0.26458332">...</tspan></text>
  </g>
</svg>
